<svg xmlns="http://www.w3.org/2000/svg" width="30" height="30" viewBox="319 175 30 30"><path d="M349 199c0 .652-.419 1.201-1 1.408v1.684a1.496 1.496 0 0 1-.5 2.908 1.495 1.495 0 0 1-1.408-1h-1.684a1.495 1.495 0 0 1-1.408 1 1.495 1.495 0 0 1-1.408-1h-1.684a1.495 1.495 0 0 1-1.408 1 1.495 1.495 0 0 1-1.408-1h-1.684a1.496 1.496 0 0 1-1.408 1 1.495 1.495 0 0 1-1.408-1h-1.684a1.495 1.495 0 0 1-1.408 1 1.495 1.495 0 0 1-1.408-1h-1.684a1.495 1.495 0 0 1-1.408 1 1.495 1.495 0 0 1-1.408-1h-1.684a1.495 1.495 0 0 1-1.408 1 1.496 1.496 0 0 1-.5-2.908v-1.684a1.496 1.496 0 0 1-1-1.408 1.495 1.495 0 0 1 1-1.408v-1.684a1.496 1.496 0 0 1-1-1.408c0-.652.419-1.201 1-1.408v-1.683a1.496 1.496 0 0 1-1-1.409 1.496 1.496 0 0 1 1-1.408v-1.684a1.495 1.495 0 0 1-1-1.408 1.495 1.495 0 0 1 1-1.408v-1.684a1.496 1.496 0 0 1-1-1.408 1.495 1.495 0 0 1 1-1.408v-1.684a1.496 1.496 0 0 1-1-1.408 1.5 1.5 0 0 1 1.5-1.5 1.495 1.495 0 0 1 1.408 1h1.684c.206-.582.756-1 1.408-1a1.495 1.495 0 0 1 1.408 1h1.684c.206-.582.756-1 1.408-1a1.495 1.495 0 0 1 1.408 1h1.684a1.495 1.495 0 0 1 1.408-1c.652 0 1.202.418 1.408 1h1.684c.206-.582.756-1 1.408-1a1.495 1.495 0 0 1 1.408 1h1.684a1.495 1.495 0 0 1 1.408-1 1.495 1.495 0 0 1 1.408 1h1.684a1.495 1.495 0 0 1 1.408-1 1.5 1.5 0 0 1 1.5 1.5 1.496 1.496 0 0 1-1 1.408v1.684a1.495 1.495 0 0 1 1 1.408c0 .652-.419 1.201-1 1.408v1.684a1.495 1.495 0 0 1 1 1.408 1.495 1.495 0 0 1-1 1.408v1.684a1.496 1.496 0 0 1 1 1.408c0 .652-.419 1.202-1 1.409v1.683c.581.207 1 .756 1 1.408a1.496 1.496 0 0 1-1 1.408v1.684a1.495 1.495 0 0 1 1 1.408Zm-4-20h-22v22h22v-22Zm-13 16 7-8.5 4.5 7v6h-19l6-6 1.5 1.5Zm-6-10a3 3 0 0 0 3 3 3 3 0 1 0 0-6 3 3 0 0 0-3 3Z" fill="rgba(255, 255, 255, 1)" fill-rule="evenodd" data-name="PICTURE"/></svg>