<svg xmlns="http://www.w3.org/2000/svg" width="63" height="61.001" viewBox="514 114 63 61.001"><path d="m558.515 153.001 6.326 6.327.008-.009a5.975 5.975 0 0 0 3.766 1.67 6.017 6.017 0 0 0 .385.012v2a3 3 0 0 1-3 3h-31.757l-8.122 8.122a2.993 2.993 0 0 1-1.89.87A3.039 3.039 0 0 1 524 175a.127.127 0 0 1-.019-.002.12.12 0 0 0-.018-.001 3 3 0 0 1-1.648-.515 2.989 2.989 0 0 1-.436-.36.203.203 0 0 1-.015-.019l-.019-.023a2.928 2.928 0 0 1-.333-.404.884.884 0 0 1-.06-.107l-.005-.011a1.29 1.29 0 0 0-.034-.065l-.045-.076a2.178 2.178 0 0 1-.132-.25c-.014-.031-.023-.065-.032-.099a.98.98 0 0 0-.021-.07 15.25 15.25 0 0 0-.016-.046l-.01-.028a2.35 2.35 0 0 1-.096-.32A3.005 3.005 0 0 1 521 172v-6h-4.004a3 3 0 0 1-2.996-2.998V129a3 3 0 0 1 3-3h9v21a6 6 0 0 0 6 6h26.515Zm15.485-3h-2v5a3.015 3.015 0 0 1-.061.604 2.333 2.333 0 0 1-.094.316l-.013.034a15.979 15.979 0 0 0-.015.043.815.815 0 0 0-.014.046l-.008.029a.71.71 0 0 1-.03.095c-.042.098-.096.188-.15.279a7.311 7.311 0 0 0-.028.048c-.035.06-.06.125-.1.184a3.075 3.075 0 0 1-.333.403l-.015.02a.148.148 0 0 1-.018.02 2.979 2.979 0 0 1-1.895.867 3.065 3.065 0 0 1-.189.008.153.153 0 0 0-.018.002.153.153 0 0 1-.019.001 2.985 2.985 0 0 1-1.662-.501 3.001 3.001 0 0 1-.46-.377l-7.12-7.121H532a3 3 0 0 1-3-3v-30a3 3 0 0 1 3-3.001h42a3 3 0 0 1 3 3.001v30a3 3 0 0 1-3 3Z" fill="rgba(149, 225, 211, 1)" fill-rule="evenodd" data-name="SPEECH 4"/></svg>