<svg xmlns="http://www.w3.org/2000/svg" width="32" height="30.5"><path d="M28.19 23.833A14.38 14.38 0 0 0 30.5 16c0-8.008-6.492-14.5-14.5-14.5S1.5 7.992 1.5 16a14.61 14.61 0 0 0 .033.983 14.445 14.445 0 0 0 3.918 8.944L3.44 27.94A1.5 1.5 0 0 0 5.56 30.06l2.164-2.163a14.61 14.61 0 0 0 1.498.916A14.395 14.395 0 0 0 16 30.5a14.622 14.622 0 0 0 .861-.026 14.42 14.42 0 0 0 7.429-2.587l2.178 2.178a1.487 1.487 0 0 0 .227.186 1.475 1.475 0 0 0 .822.249c.819 0 1.483-.664 1.483-1.483a1.504 1.504 0 0 0-.003-.1 1.48 1.48 0 0 0-.431-.95l-2.029-2.027a14.682 14.682 0 0 0 1.653-2.107ZM16 4.5C9.649 4.5 4.5 9.648 4.5 16c0 6.351 5.149 11.5 11.5 11.5A11.5 11.5 0 0 0 27.5 16 11.5 11.5 0 0 0 16 4.5Zm6 13h-6a1.5 1.5 0 0 1-1.5-1.5V8a1.5 1.5 0 0 1 3 0v6.5H22a1.5 1.5 0 0 1 1.5 1.5 1.5 1.5 0 0 1-1.5 1.5ZM.013 6.39a5.97 5.97 0 0 0 1.274 3.315 16.055 16.055 0 0 1 8.419-8.418 6.068 6.068 0 0 0-.733-.495A5.953 5.953 0 0 0 6 0a6 6 0 0 0-6 6 6.043 6.043 0 0 0 .013.39ZM30.74 9.503a15.72 15.72 0 0 0-8.243-8.243A5.847 5.847 0 0 1 25.743.012 5.917 5.917 0 0 1 26.126 0 5.874 5.874 0 0 1 32 5.874a5.828 5.828 0 0 1-.776 2.911 5.95 5.95 0 0 1-.484.718Z" fill="rgba(149, 225, 211, 1)" fill-rule="evenodd" data-name="ALARM"/></svg>