<svg xmlns="http://www.w3.org/2000/svg" width="32" height="30.5" viewBox="0 1 32 30.5"><path d="M29 19.5V30a1.5 1.5 0 0 1-1.5 1.5h-3v-12h-6v12h-14A1.5 1.5 0 0 1 3 30V19.5l13-13 13 13Zm1.5-1A1.5 1.5 0 0 0 32 17a1.49 1.49 0 0 0-.406-1.02l.004-.003L26 10.379V6a1.5 1.5 0 0 0-1.5-1.5A1.5 1.5 0 0 0 23 6V7.38l-5.902-5.902a1.504 1.504 0 0 0-.934-.467.008.008 0 0 0-.002 0 .017.017 0 0 0-.002-.001 2.495 2.495 0 0 0-.068-.006h-.012A1.161 1.161 0 0 0 16 1a1.519 1.519 0 0 0-.109.004 1.496 1.496 0 0 0-.972.457L.46 15.919a1.512 1.512 0 0 0-.202.24A1.492 1.492 0 0 0 0 17a1.5 1.5 0 0 0 1.5 1.5 1.524 1.524 0 0 0 .105-.004 1.495 1.495 0 0 0 .948-.428L16 4.622l.038.037L29.477 18.1l.003-.004a1.538 1.538 0 0 0 .217.168 1.478 1.478 0 0 0 .803.237Zm-17 1h-6v6h6v-6Z" fill="rgba(149, 225, 211, 1)" fill-rule="evenodd" data-name="HOME"/></svg>