<svg xmlns="http://www.w3.org/2000/svg" width="32" height="32"><path d="M30.5 32h-29A1.5 1.5 0 0 1 0 30.5v-29A1.5 1.5 0 0 1 1.5 0h29A1.5 1.5 0 0 1 32 1.5v29a1.5 1.5 0 0 1-1.5 1.5ZM29 3H3v26h26V3Zm-9 1.5h7.5V12a1.5 1.5 0 0 1-1.5 1.5 1.5 1.5 0 0 1-1.5-1.5V7.5H20A1.5 1.5 0 0 1 18.5 6 1.5 1.5 0 0 1 20 4.5Zm-13.5 0H12A1.5 1.5 0 0 1 13.5 6 1.5 1.5 0 0 1 12 7.5H7.5V12A1.5 1.5 0 0 1 6 13.5 1.5 1.5 0 0 1 4.5 12V4.5h2ZM4.5 20A1.5 1.5 0 0 1 6 18.5 1.5 1.5 0 0 1 7.5 20v4.5H12a1.5 1.5 0 0 1 1.5 1.5 1.5 1.5 0 0 1-1.5 1.5H4.5V20ZM20 24.5h4.5V20a1.5 1.5 0 0 1 1.5-1.5 1.5 1.5 0 0 1 1.5 1.5v7.5H20a1.5 1.5 0 0 1-1.5-1.5 1.5 1.5 0 0 1 1.5-1.5Z" fill="rgba(149, 225, 211, 1)" fill-rule="evenodd" data-name="IMAGE"/></svg>