<svg xmlns="http://www.w3.org/2000/svg" width="32" height="32"><path d="M30.5 32h-29A1.5 1.5 0 0 1 0 30.5v-29A1.5 1.5 0 0 1 1.5 0h29A1.5 1.5 0 0 1 32 1.5v29a1.5 1.5 0 0 1-1.5 1.5ZM29 3H3v26h26V3ZM5.215 16.239v-.002l4-2.5v.002a1.489 1.489 0 0 1 .711-.22 1.522 1.522 0 0 1 .074-.002 1.492 1.492 0 0 1 .688.167 1.496 1.496 0 0 1 .152.09l.005-.007 6.632 4.419 7.638-5.391a1.491 1.491 0 0 1 .793-.287 1.523 1.523 0 0 1 .092-.002 1.5 1.5 0 0 1 1.5 1.5 1.493 1.493 0 0 1-.345.955 1.509 1.509 0 0 1-.277.26l-8.5 6a1.492 1.492 0 0 1-.786.282 1.52 1.52 0 0 1-.092.002 1.49 1.49 0 0 1-.703-.175 1.5 1.5 0 0 1-.158-.097l-6.657-4.438-3.135 1.96a1.494 1.494 0 0 1-.847.262 1.5 1.5 0 0 1-1.5-1.5 1.5 1.5 0 0 1 .715-1.278Zm5.627-2.468a3.337 3.337 0 0 1 0 .002" fill="rgba(149, 225, 211, 1)" fill-rule="evenodd" data-name="LINE GRAPH"/></svg>