<svg xmlns="http://www.w3.org/2000/svg" width="16.012" height="14.269" viewBox="100 380 16.012 14.269"><path d="M107.327 392.101a5.786 5.786 0 0 0 1.108.142 11.371 11.371 0 0 0 1.297-.072c3.932-.452 6.28-2.963 6.28-6.03a5.581 5.581 0 0 0-1.502-3.843c-.734-.792-1.721-1.424-2.927-1.822a10.016 10.016 0 0 0-3.148-.476 11.465 11.465 0 0 0-2.639.302c-1.379.327-2.596.903-3.554 1.656A5.36 5.36 0 0 0 100 386.14a4.961 4.961 0 0 0 1.137 3.123 6.98 6.98 0 0 0 1.932 1.638.326.326 0 0 1 .102.101c.294.437.193 1.886-1.53 2.938a5.675 5.675 0 0 1-.53.285 1.132 1.132 0 0 0 .02.003c.257.035 2.91.346 4.964-1.517a5.892 5.892 0 0 0 .664-.712 11.624 11.624 0 0 1 .568.102Zm4.433-7.341a1.5 1.5 0 0 0-1.5 1.5 1.5 1.5 0 0 0 1.5 1.5 1.5 1.5 0 0 0 1.5-1.5 1.5 1.5 0 0 0-1.5-1.5Zm-7.5 0a1.5 1.5 0 0 0-1.5 1.5 1.5 1.5 0 0 0 1.5 1.5 1.5 1.5 0 0 0 1.5-1.5 1.5 1.5 0 0 0-1.5-1.5Zm3.75 0a1.5 1.5 0 0 0-1.5 1.5 1.5 1.5 0 0 0 1.5 1.5 1.5 1.5 0 0 0 1.5-1.5 1.5 1.5 0 0 0-1.5-1.5Z" fill="rgba(149, 225, 211, 1)" fill-rule="evenodd" data-name="SPEECH BUBBLE 2"/></svg>