<svg xmlns="http://www.w3.org/2000/svg" width="19.441" height="11.245" viewBox="32 381 19.441 11.245"><path d="m51.44 386.66-.002.024-.001.012a.11.11 0 0 1-.002.011.272.272 0 0 0 0 .006.803.803 0 0 1-.002.011.566.566 0 0 1-.001.01.752.752 0 0 1-.204.413 10.91 10.91 0 0 1-.65.706 16.8 16.8 0 0 1-4.124 3.123c-.972.509-2.011.919-3.089 1.116a8.968 8.968 0 0 1-3.55-.05 13.402 13.402 0 0 1-5.503-2.863 14.956 14.956 0 0 1-2.108-2.032.946.946 0 0 1-.141-.228.738.738 0 0 1 .025-.646.977.977 0 0 1 .116-.174 10.92 10.92 0 0 1 .65-.708c1.211-1.23 2.601-2.326 4.123-3.122.973-.508 2.012-.919 3.09-1.116a9.566 9.566 0 0 1 .48-.076 9.123 9.123 0 0 1 1.181-.077 8.865 8.865 0 0 1 1.889.203 13.395 13.395 0 0 1 5.503 2.863 14.94 14.94 0 0 1 2.108 2.033.751.751 0 0 1 .203.409.214.214 0 0 1 .002.013.505.505 0 0 1 .001.01.32.32 0 0 0 0 .006.159.159 0 0 1 .002.012l.001.012a1.269 1.269 0 0 0 .001.008.425.425 0 0 1 .001.017 1.704 1.704 0 0 0 0 .008l.001.01a.413.413 0 0 1 0 .019.776.776 0 0 1 0 .037Zm-9.72-3.834a3.645 3.645 0 1 0 0 7.29 3.645 3.645 0 0 0 3.645-3.645 3.645 3.645 0 0 0-3.645-3.645Zm0 5.467a1.822 1.822 0 1 1 0-3.645 1.823 1.823 0 0 1 1.823 1.823 1.822 1.822 0 0 1-1.823 1.822Z" fill="rgba(149, 225, 211, 1)" fill-rule="evenodd" data-name="VIEW"/></svg>