<svg xmlns="http://www.w3.org/2000/svg" width="32" height="32.001" viewBox="15 13 32 32.001"><path d="M15 29a16 16 0 0 0 16 16 16 16 0 0 0 16-16 16 16 0 0 0-16-16c-8.836 0-16 7.164-16 16Zm16-13a13 13 0 0 0-13 13 13 13 0 0 0 13 13c7.18 0 13-5.82 13-13a13 13 0 0 0-13-13Zm0 22.5a9.5 9.5 0 0 1 0-19 9.5 9.5 0 0 1 9.5 9.5 9.5 9.5 0 0 1-9.5 9.5Zm0-16a6.5 6.5 0 0 0-6.5 6.5c0 3.59 2.91 6.5 6.5 6.5a6.501 6.501 0 0 0 6.5-6.5 6.5 6.5 0 0 0-6.5-6.5Zm0 9.5a3 3 0 0 1-3-3A3 3 0 0 1 31 26 3 3 0 0 1 34 29a3 3 0 0 1-3 3Z" fill="rgba(149, 225, 211, 1)" fill-rule="evenodd" data-name="BULLSEYE"/></svg>