<svg xmlns="http://www.w3.org/2000/svg" width="28" height="32" viewBox="15 13 28 32"><path d="M29 13a1.5 1.5 0 0 0-1.5 1.5V27h3V14.5A1.5 1.5 0 0 0 29 13Zm12.5 30.5a1.5 1.5 0 1 1-3 0V31h3v12.5Zm-11-6h-3A1.5 1.5 0 0 1 26 36v-6a1.5 1.5 0 0 1 1.5-1.5h3A1.5 1.5 0 0 1 32 30v6a1.5 1.5 0 0 1-1.5 1.5Zm-11-4h-3a1.5 1.5 0 0 1-1.5-1.501v-6a1.5 1.5 0 0 1 1.5-1.499h3A1.5 1.5 0 0 1 21 26v5.999a1.5 1.5 0 0 1-1.5 1.5Zm22-4h-3A1.5 1.5 0 0 1 37 28v-6a1.5 1.5 0 0 1 1.5-1.5h3A1.5 1.5 0 0 1 43 22v6a1.5 1.5 0 0 1-1.5 1.5ZM18 13a1.5 1.5 0 0 0-1.5 1.5V23h3v-8.5A1.5 1.5 0 0 0 18 13Zm0 32a1.5 1.5 0 0 0 1.5-1.5V35h-3v8.5c0 .828.672 1.5 1.5 1.5Zm12.5-1.5a1.5 1.5 0 1 1-3 0v-4.501h3v4.5ZM40 13a1.5 1.5 0 0 0-1.5 1.5V19h3v-4.5A1.5 1.5 0 0 0 40 13Z" fill="rgba(149, 225, 211, 1)" fill-rule="evenodd" data-name="EQUALIZER"/></svg>