<svg xmlns="http://www.w3.org/2000/svg" width="30" height="30" viewBox="15 14 30 30"><path d="M45 38c0 .651-.419 1.2-1 1.408v1.683a1.496 1.496 0 0 1 1 1.408A1.501 1.501 0 0 1 43.5 44a1.497 1.497 0 0 1-1.408-1h-1.684c-.207.58-.756 1-1.408 1-.652 0-1.202-.42-1.408-1h-1.684c-.207.58-.756 1-1.408 1a1.497 1.497 0 0 1-1.408-1h-1.684c-.206.58-.756 1-1.408 1a1.497 1.497 0 0 1-1.408-1h-1.684a1.497 1.497 0 0 1-1.408 1c-.652 0-1.202-.42-1.408-1h-1.684A1.497 1.497 0 0 1 21 44c-.652 0-1.201-.42-1.408-1h-1.684c-.207.58-.756 1-1.408 1a1.501 1.501 0 0 1-1.5-1.5c0-.653.419-1.202 1-1.41v-1.682c-.581-.207-1-.757-1-1.408a1.495 1.495 0 0 1 1-1.409v-1.683c-.581-.208-1-.756-1-1.408a1.497 1.497 0 0 1 1-1.409v-1.684A1.494 1.494 0 0 1 15 29a1.499 1.499 0 0 1 1-1.41v-1.683a1.494 1.494 0 0 1-1-1.407c0-.653.419-1.202 1-1.408v-1.684a1.496 1.496 0 0 1-1-1.409 1.494 1.494 0 0 1 1-1.407v-1.685a1.494 1.494 0 0 1-1-1.407 1.5 1.5 0 0 1 1.5-1.5 1.494 1.494 0 0 1 1.408 1h1.684A1.494 1.494 0 0 1 21 14c.652 0 1.202.418 1.408 1h1.684a1.494 1.494 0 0 1 1.408-1c.652 0 1.202.418 1.408 1h1.684c.206-.582.756-1 1.408-1a1.494 1.494 0 0 1 1.408 1h1.684a1.494 1.494 0 0 1 1.408-1 1.494 1.494 0 0 1 1.408 1h1.684A1.494 1.494 0 0 1 39 14a1.494 1.494 0 0 1 1.408 1h1.684a1.494 1.494 0 0 1 1.408-1 1.5 1.5 0 0 1 1.5 1.5 1.494 1.494 0 0 1-1 1.407v1.685c.581.206 1 .756 1 1.407 0 .652-.419 1.202-1 1.409v1.684c.581.206 1 .755 1 1.408a1.494 1.494 0 0 1-1 1.407v1.683c.581.208 1 .758 1 1.41a1.494 1.494 0 0 1-1 1.407v1.684a1.497 1.497 0 0 1 1 1.409 1.497 1.497 0 0 1-1 1.408v1.683c.581.207 1 .756 1 1.41ZM41 18H19v22h22V18Zm-13 16 7-8.499 4.5 7v6h-19l6-6L28 34Zm-3-7a3 3 0 1 1 0-6 3 3 0 0 1 0 6Z" fill="rgba(149, 225, 211, 1)" fill-rule="evenodd" data-name="PICTURE"/></svg>